<svg width="590" height="225" viewBox="0 0 590 225" fill="none" xmlns="http://www.w3.org/2000/svg">
  <defs><linearGradient id="bg" x1="0" y1="0" x2="590" y2="225"><stop stop-color="#091B1A"/><stop offset="1" stop-color="#0B1020"/></linearGradient><linearGradient id="g"><stop stop-color="#34D399"/><stop offset="1" stop-color="#22D3EE"/></linearGradient><clipPath id="c"><rect x="1" y="1" width="588" height="223" rx="20"/></clipPath></defs>
  <rect x="1" y="1" width="588" height="223" rx="20" fill="url(#bg)" stroke="#34D399" stroke-opacity=".4"/>
  <g clip-path="url(#c)"><path d="M440 65l35-28 30 18 46-42" stroke="#34D399" stroke-opacity=".2" stroke-width="3"/><circle cx="551" cy="13" r="4" fill="#34D399"><animate attributeName="r" values="3;7;3" dur="2.2s" repeatCount="indefinite"/></circle><rect x="-90" y="0" width="54" height="225" fill="url(#g)" opacity=".05" transform="skewX(-18)"><animate attributeName="x" values="-90;700" dur="6.8s" repeatCount="indefinite"/></rect></g>
  <rect x="24" y="22" width="119" height="25" rx="12.5" fill="#073A34" stroke="#34D399" stroke-opacity=".55"/><text x="83" y="39" fill="#6EE7B7" font-family="ui-monospace, SFMono-Regular, Menlo, monospace" font-size="10" text-anchor="middle" letter-spacing="1.4">FULL STACK</text>
  <text x="24" y="83" fill="#F8FAFC" font-family="Inter, ui-sans-serif, system-ui, sans-serif" font-size="24" font-weight="720">Finance Dashboard</text>
  <text x="24" y="111" fill="#94A3B8" font-family="Inter, ui-sans-serif, system-ui, sans-serif" font-size="13">Authenticated financial record management with protected</text>
  <text x="24" y="132" fill="#94A3B8" font-family="Inter, ui-sans-serif, system-ui, sans-serif" font-size="13">routes, dashboard insights and a RESTful backend.</text>
  <g font-family="ui-monospace, SFMono-Regular, Menlo, monospace" font-size="10"><rect x="24" y="158" width="67" height="25" rx="8" fill="#10211F" stroke="#61DAFB" stroke-opacity=".45"/><text x="57" y="174" fill="#BAE6FD" text-anchor="middle">REACT</text><rect x="99" y="158" width="91" height="25" rx="8" fill="#10211F" stroke="#68A063" stroke-opacity=".48"/><text x="144" y="174" fill="#BBF7D0" text-anchor="middle">NODE / API</text><rect x="198" y="158" width="82" height="25" rx="8" fill="#10211F" stroke="#47A248" stroke-opacity=".5"/><text x="239" y="174" fill="#BBF7D0" text-anchor="middle">MONGODB</text></g>
  <text x="24" y="207" fill="#34D399" font-family="ui-monospace, SFMono-Regular, Menlo, monospace" font-size="11">VIEW REPOSITORY</text><path d="M142 203h22m-7-7 7 7-7 7" stroke="#34D399" stroke-linecap="round" stroke-linejoin="round"><animate attributeName="opacity" values=".35;1;.35" dur="1.8s" repeatCount="indefinite"/></path>
</svg>

